<?xml version="1.0" standalone="no"?>
<!DOCTYPE svg PUBLIC "-//W3C//DTD SVG 20010904//EN"
 "http://www.w3.org/TR/2001/REC-SVG-20010904/DTD/svg10.dtd">
<svg version="1.0" xmlns="http://www.w3.org/2000/svg"
 width="80.000000pt" height="80.000000pt" viewBox="0 0 80.000000 80.000000"
 preserveAspectRatio="xMidYMid meet">
<metadata>
Created by potrace 1.11, written by Peter Selinger 2001-2013
</metadata>
<g transform="translate(0.000000,80.000000) scale(0.100000,-0.100000)"
fill="#000000" stroke="none">
<path d="M43 758 c-38 -18 -43 -52 -41 -292 1 -293 -8 -278 167 -279 l122 -1
-6 -41 c-11 -68 -14 -74 -48 -77 -20 -2 -32 -8 -32 -18 0 -13 28 -15 195 -15
167 0 195 2 195 15 0 10 -12 16 -32 18 -35 3 -38 9 -48 74 l-7 44 123 1 c176
0 167 -15 167 285 -1 128 -5 243 -11 254 -5 12 -20 27 -34 33 -32 15 -679 14
-710 -1z m705 -41 c9 -10 16 -243 12 -399 0 -17 -24 -18 -360 -18 l-360 0 -1
163 c-2 203 0 239 13 254 15 19 681 19 696 0z m9 -464 c2 -6 -4 -16 -14 -21
-23 -13 -662 -13 -685 -1 -10 6 -18 15 -18 22 0 17 712 17 717 0z m-283 -82
c3 -9 8 -35 11 -58 l7 -43 -91 0 -92 0 7 53 c4 28 11 54 15 58 5 3 38 5 74 5
51 1 66 -2 69 -15z"/>
<path d="M386 552 c-51 -152 -53 -165 -30 -160 11 2 30 45 60 138 48 149 50
160 30 160 -9 0 -30 -47 -60 -138z"/>
<path d="M225 608 c-33 -28 -60 -59 -60 -69 0 -17 109 -119 127 -119 24 0 1
40 -42 75 l-49 40 55 50 c46 42 53 53 42 62 -11 10 -26 1 -73 -39z"/>
<path d="M501 646 c-9 -10 1 -23 44 -60 l54 -48 -47 -40 c-54 -47 -66 -64 -52
-73 10 -6 77 42 128 93 l24 23 -48 42 c-85 75 -90 78 -103 63z"/>
<path d="M156 361 c-7 -11 18 -33 27 -24 4 3 7 12 7 20 0 15 -26 18 -34 4z"/>
<path d="M244 359 c-13 -22 20 -26 199 -25 174 1 214 6 202 27 -9 14 -392 12
-401 -2z"/>
</g>
</svg>
